HIERARCHY
ROOT center
{
	OFFSET 0.0 0.0 0.0
	CHANNELS 6 Xposition Yposition Zposition Zrotation Yrotation Xrotation
	JOINT right_hip
	{
		OFFSET 0.0 0.0 0.0
		CHANNELS 3 Zrotation Yrotation Xrotation
		JOINT right_knee
		{
			OFFSET 6.003237 -8.234672 -1.763324
			CHANNELS 3 Zrotation Yrotation Xrotation
			JOINT right_ankle
			{
				OFFSET 4.247250 -37.915997 0.952319
				CHANNELS 3 Zrotation Yrotation Xrotation
				JOINT right_feet
				{
					OFFSET -2.128168 -41.069791 -4.089553
					CHANNELS 3 Zrotation Yrotation Xrotation
					End Site
					{
						OFFSET 4.451157 -5.802411 11.731484
					}
				}
			}
		}
	}
	JOINT left_hip
	{
		OFFSET 0.0 0.0 0.0
		CHANNELS 3 Zrotation Yrotation Xrotation
		JOINT left_knee
		{
			OFFSET -6.137124 -8.952887 -1.421033
			CHANNELS 3 Zrotation Yrotation Xrotation
			JOINT left_ankle
			{
				OFFSET -4.233828 -37.775457 -0.231634
				CHANNELS 3 Zrotation Yrotation Xrotation
				JOINT left_feet
				{
					OFFSET 2.522341 -40.384021 -3.658957
					CHANNELS 3 Zrotation Yrotation Xrotation
					End Site
					{
						OFFSET -4.121543 -6.372566 12.381067
					}
				}
			}
		}
	}
	JOINT spine1
	{
		OFFSET 0.0 0.0 0.0
		CHANNELS 3 Zrotation Yrotation Xrotation
		JOINT spine2
		{
			OFFSET 0.493787 12.434425 -4.801330
			CHANNELS 3 Zrotation Yrotation Xrotation
			JOINT neck
			{
				OFFSET 0.538413 13.551614 3.993389
				CHANNELS 3 Zrotation Yrotation Xrotation
				JOINT head1
				{
					OFFSET -0.318717 5.546091 0.520973
					CHANNELS 3 Zrotation Yrotation Xrotation
					JOINT head2
					{
						OFFSET -1.377978 20.417799 -3.430427
						CHANNELS 3 Zrotation Yrotation Xrotation
						End Site
						{
							OFFSET 1.047753 8.312879 4.953424
						}
					}
				}
				JOINT right_armpit
				{
					OFFSET -0.318717 5.546091 0.520973
					CHANNELS 3 Zrotation Yrotation Xrotation
					JOINT right_shoulder
					{
						OFFSET 7.264843 11.244930 -1.381082
						CHANNELS 3 Zrotation Yrotation Xrotation
						JOINT right_elbow
						{
							OFFSET 12.006267 4.030055 -2.745621
							CHANNELS 3 Zrotation Yrotation Xrotation
							JOINT right_wrist
							{
								OFFSET 24.494633 -1.444752 -2.048422
								CHANNELS 3 Zrotation Yrotation Xrotation
								JOINT left_thumb1
								{
									OFFSET 25.149395 1.252691 -0.662978
									CHANNELS 3 Zrotation Yrotation Xrotation
									JOINT left_thumb2
									{
										OFFSET 3.932642 -1.607562 3.004782
										CHANNELS 3 Zrotation Yrotation Xrotation
										JOINT left_thumb3
										{
											OFFSET 1.768622 -1.073321 2.362116
											CHANNELS 3 Zrotation Yrotation Xrotation
											JOINT left_thumb4
											{
												OFFSET 2.182346 -1.208037 1.763641
												CHANNELS 3 Zrotation Yrotation Xrotation
												End Site
												{
													OFFSET 1.765320 -0.885300 1.005084
												}
											}
										}
									}
								}
								JOINT left_index1
								{
									OFFSET 25.149395 1.252691 -0.662978
									CHANNELS 3 Zrotation Yrotation Xrotation
									JOINT left_index2
									{
										OFFSET 8.993935 0.354131 2.426565
										CHANNELS 3 Zrotation Yrotation Xrotation
										JOINT left_index3
										{
											OFFSET 4.015668 0.132908 0.191764
											CHANNELS 3 Zrotation Yrotation Xrotation
											JOINT left_index4
											{
												OFFSET 2.037966 -0.565846 0.005131
												CHANNELS 3 Zrotation Yrotation Xrotation
												End Site
												{
													OFFSET 1.874599 -0.321127 -0.083419
												}
											}
										}
									}
								}
								JOINT left_middle1
								{
									OFFSET 25.149395 1.252691 -0.662978
									CHANNELS 3 Zrotation Yrotation Xrotation
									JOINT left_middle2
									{
										OFFSET 8.762972 0.524144 0.126571
										CHANNELS 3 Zrotation Yrotation Xrotation
										JOINT left_middle3
										{
											OFFSET 4.273323 0.056721 -0.429347
											CHANNELS 3 Zrotation Yrotation Xrotation
											JOINT left_middle4
											{
												OFFSET 2.116821 -0.959837 0.006184
												CHANNELS 3 Zrotation Yrotation Xrotation
												End Site
												{
													OFFSET 1.877739 -0.757117 -0.023636
												}
											}
										}
									}
								}
								JOINT left_ring1
								{
									OFFSET 25.149395 1.252691 -0.662978
									CHANNELS 3 Zrotation Yrotation Xrotation
									JOINT left_ring2
									{
										OFFSET 8.336177 0.249843 -1.667055
										CHANNELS 3 Zrotation Yrotation Xrotation
										JOINT left_ring3
										{
											OFFSET 3.625989 -0.080996 -0.883047
											CHANNELS 3 Zrotation Yrotation Xrotation
											JOINT left_ring4
											{
												OFFSET 1.874289 -1.177449 -0.170528
												CHANNELS 3 Zrotation Yrotation Xrotation
												End Site
												{
													OFFSET 1.578880 -1.067276 -0.121516
												}
											}
										}
									}
								}
								JOINT left_little1
								{
									OFFSET 25.149395 1.252691 -0.662978
									CHANNELS 3 Zrotation Yrotation Xrotation
									JOINT left_little2
									{
										OFFSET 7.467338 -0.170476 -3.195559
										CHANNELS 3 Zrotation Yrotation Xrotation
										JOINT left_little3
										{
											OFFSET 2.734264 -0.500053 -1.255270
											CHANNELS 3 Zrotation Yrotation Xrotation
											JOINT left_little4
											{
												OFFSET 1.333183 -0.723305 -0.379579
												CHANNELS 3 Zrotation Yrotation Xrotation
												End Site
												{
													OFFSET 1.167858 -0.842210 -0.123702
												}
											}
										}
									}
								}
							}
						}
					}
				}
				JOINT left_armpit
				{
					OFFSET -0.318717 5.546091 0.520973
					CHANNELS 3 Zrotation Yrotation Xrotation
					JOINT left_shoulder
					{
						OFFSET -8.492000 11.126453 -1.828523
						CHANNELS 3 Zrotation Yrotation Xrotation
						JOINT left_elbow
						{
							OFFSET -11.121675 4.208167 -1.682719
							CHANNELS 3 Zrotation Yrotation Xrotation
							JOINT left_wrist
							{
								OFFSET -24.907178 -1.231040 -3.045630
								CHANNELS 3 Zrotation Yrotation Xrotation
								JOINT right_thumb1
								{
									OFFSET -25.685241 0.675034 -0.369305
									CHANNELS 3 Zrotation Yrotation Xrotation
									JOINT right_thumb2
									{
										OFFSET -3.534315 -1.809768 3.298760
										CHANNELS 3 Zrotation Yrotation Xrotation
										JOINT right_thumb3
										{
											OFFSET -1.811383 -1.038386 2.556563
											CHANNELS 3 Zrotation Yrotation Xrotation
											JOINT right_thumb4
											{
												OFFSET -2.290358 -1.278319 2.012989
												CHANNELS 3 Zrotation Yrotation Xrotation
												End Site
												{
													OFFSET -1.969455 -1.070182 1.076385
												}
											}
										}
									}
								}
								JOINT right_index1
								{
									OFFSET -25.685241 0.675034 -0.369305
									CHANNELS 3 Zrotation Yrotation Xrotation
									JOINT right_index2
									{
										OFFSET -9.026274 -0.013413 2.564157
										CHANNELS 3 Zrotation Yrotation Xrotation
										JOINT right_index3
										{
											OFFSET -4.210113 -0.054377 0.192441
											CHANNELS 3 Zrotation Yrotation Xrotation
											JOINT right_index4
											{
												OFFSET -2.157488 -0.719005 0.059623
												CHANNELS 3 Zrotation Yrotation Xrotation
												End Site
												{
													OFFSET -1.911041 -0.428463 -0.012114
												}
											}
										}
									}
								}
								JOINT right_middle1
								{
									OFFSET -25.685241 0.675034 -0.369305
									CHANNELS 3 Zrotation Yrotation Xrotation
									JOINT right_middle2
									{
										OFFSET -8.808337 0.016182 0.031701
										CHANNELS 3 Zrotation Yrotation Xrotation
										JOINT right_middle3
										{
											OFFSET -4.557579 -0.214504 -0.366192
											CHANNELS 3 Zrotation Yrotation Xrotation
											JOINT right_middle4
											{
												OFFSET -2.213937 -1.122867 0.075004
												CHANNELS 3 Zrotation Yrotation Xrotation
												End Site
												{
													OFFSET -1.846703 -0.900412 0.030151
												}
											}
										}
									}
								}
								JOINT right_ring1
								{
									OFFSET -25.685241 0.675034 -0.369305
									CHANNELS 3 Zrotation Yrotation Xrotation
									JOINT right_ring2
									{
										OFFSET -8.316527 -0.381612 -1.773284
										CHANNELS 3 Zrotation Yrotation Xrotation
										JOINT right_ring3
										{
											OFFSET -3.784131 -0.319129 -0.916271
											CHANNELS 3 Zrotation Yrotation Xrotation
											JOINT right_ring4
											{
												OFFSET -2.008768 -1.368578 -0.094339
												CHANNELS 3 Zrotation Yrotation Xrotation
												End Site
												{
													OFFSET -1.566631 -1.127561 -0.081427
												}
											}
										}
									}
								}
								JOINT right_little1
								{
									OFFSET -25.685241 0.675034 -0.369305
									CHANNELS 3 Zrotation Yrotation Xrotation
									JOINT right_little2
									{
										OFFSET -7.427190 -0.917724 -3.422155
										CHANNELS 3 Zrotation Yrotation Xrotation
										JOINT right_little3
										{
											OFFSET -2.747496 -0.707402 -1.189286
											CHANNELS 3 Zrotation Yrotation Xrotation
											JOINT right_little4
											{
												OFFSET -1.427463 -0.888600 -0.355099
												CHANNELS 3 Zrotation Yrotation Xrotation
												End Site
												{
													OFFSET -1.147156 -0.941040 -0.045633
												}
											}
										}
									}
								}
							}
						}
					}
				}
			}
		}
	}
}
MOTION
Frames: 5
Frame Time: 0.033333
-22.389856 3.832256 -160.574333 0.0 0.0 180.0 1.284213 -5.131546 177.376319 4.680253 0.102128 -1.169842 -1.003396 0.096950 0.055076 0.000000 -0.000000 0.000000 1.284213 -5.131546 177.376319 3.184687 -1.484359 2.981323 -1.954587 -0.283775 -7.431063 0.000000 -0.000000 0.000000 1.284213 -5.131546 177.376319 0.539980 -0.088797 0.153115 0.476411 -0.052432 -0.286009 0.399374 -0.049822 -0.366468 0.000000 -0.000000 0.000000 0.399374 -0.049822 -0.366468 -10.229725 11.808641 -0.955209 -37.109267 17.309000 -11.391547 -80.291663 -18.331760 61.456394 0.000000 -0.000000 0.000000 0.000000 -0.000000 0.000000 0.000000 -0.000000 0.000000 0.000000 -0.000000 0.000000 0.000000 -0.000000 0.000000 0.000000 -0.000000 0.000000 0.000000 -0.000000 0.000000 0.000000 -0.000000 0.000000 0.000000 -0.000000 0.000000 0.000000 -0.000000 0.000000 0.000000 -0.000000 0.000000 0.000000 -0.000000 0.000000 0.000000 -0.000000 0.000000 0.000000 -0.000000 0.000000 0.000000 -0.000000 0.000000 0.000000 -0.000000 0.000000 0.000000 -0.000000 0.000000 0.000000 -0.000000 0.000000 0.000000 -0.000000 0.000000 0.000000 -0.000000 0.000000 0.399374 -0.049822 -0.366468 6.871960 -10.082409 -3.184051 37.711770 -15.434076 -13.659396 77.201184 14.677926 48.074353 0.000000 -0.000000 0.000000 0.000000 -0.000000 0.000000 0.000000 -0.000000 0.000000 0.000000 -0.000000 0.000000 0.000000 -0.000000 0.000000 0.000000 -0.000000 0.000000 0.000000 -0.000000 0.000000 0.000000 -0.000000 0.000000 0.000000 -0.000000 0.000000 0.000000 -0.000000 0.000000 0.000000 -0.000000 0.000000 0.000000 -0.000000 0.000000 0.000000 -0.000000 0.000000 0.000000 -0.000000 0.000000 0.000000 -0.000000 0.000000 0.000000 -0.000000 0.000000 0.000000 -0.000000 0.000000 0.000000 -0.000000 0.000000 0.000000 -0.000000 0.000000 0.000000 -0.000000 0.000000
-23.040782 4.311534 -160.833962 0.0 0.0 180.0 1.131211 -4.371197 177.167473 5.605624 0.404798 -0.483859 -2.381428 0.245409 -0.181614 0.000000 -0.000000 0.000000 1.131211 -4.371197 177.167473 3.485458 -1.618010 3.491095 -1.812104 -0.317930 -7.788339 0.000000 -0.000000 0.000000 1.131211 -4.371197 177.167473 0.498188 -0.072257 0.144465 0.464787 -0.044653 -0.299668 0.399549 -0.043203 -0.380737 0.000000 -0.000000 0.000000 0.399549 -0.043203 -0.380737 -10.342405 11.549158 -1.071738 -40.538566 16.048859 -13.836563 -76.323319 -16.492480 49.356323 0.000000 -0.000000 0.000000 0.000000 -0.000000 0.000000 0.000000 -0.000000 0.000000 0.000000 -0.000000 0.000000 0.000000 -0.000000 0.000000 0.000000 -0.000000 0.000000 0.000000 -0.000000 0.000000 0.000000 -0.000000 0.000000 0.000000 -0.000000 0.000000 0.000000 -0.000000 0.000000 0.000000 -0.000000 0.000000 0.000000 -0.000000 0.000000 0.000000 -0.000000 0.000000 0.000000 -0.000000 0.000000 0.000000 -0.000000 0.000000 0.000000 -0.000000 0.000000 0.000000 -0.000000 0.000000 0.000000 -0.000000 0.000000 0.000000 -0.000000 0.000000 0.000000 -0.000000 0.000000 0.399549 -0.043203 -0.380737 7.604865 -9.610845 -3.350595 38.357470 -15.562289 -14.881952 76.081240 13.487990 43.179068 0.000000 -0.000000 0.000000 0.000000 -0.000000 0.000000 0.000000 -0.000000 0.000000 0.000000 -0.000000 0.000000 0.000000 -0.000000 0.000000 0.000000 -0.000000 0.000000 0.000000 -0.000000 0.000000 0.000000 -0.000000 0.000000 0.000000 -0.000000 0.000000 0.000000 -0.000000 0.000000 0.000000 -0.000000 0.000000 0.000000 -0.000000 0.000000 0.000000 -0.000000 0.000000 0.000000 -0.000000 0.000000 0.000000 -0.000000 0.000000 0.000000 -0.000000 0.000000 0.000000 -0.000000 0.000000 0.000000 -0.000000 0.000000 0.000000 -0.000000 0.000000 0.000000 -0.000000 0.000000
-23.226511 4.359214 -160.753360 0.0 0.0 180.0 0.960793 -4.062058 177.316597 5.531709 0.089929 -1.209098 -2.715771 0.190438 1.539109 0.000000 -0.000000 0.000000 0.960793 -4.062058 177.316597 3.017916 -1.192899 2.464780 -0.723543 -0.273296 -5.492782 0.000000 -0.000000 0.000000 0.960793 -4.062058 177.316597 0.578859 -0.041829 0.155988 0.525032 -0.007716 -0.301924 0.449751 -0.005501 -0.386324 0.000000 -0.000000 0.000000 0.449751 -0.005501 -0.386324 -11.300531 12.864521 -1.552977 -41.544042 15.957481 -13.903188 -75.318336 -19.094412 51.287578 0.000000 -0.000000 0.000000 0.000000 -0.000000 0.000000 0.000000 -0.000000 0.000000 0.000000 -0.000000 0.000000 0.000000 -0.000000 0.000000 0.000000 -0.000000 0.000000 0.000000 -0.000000 0.000000 0.000000 -0.000000 0.000000 0.000000 -0.000000 0.000000 0.000000 -0.000000 0.000000 0.000000 -0.000000 0.000000 0.000000 -0.000000 0.000000 0.000000 -0.000000 0.000000 0.000000 -0.000000 0.000000 0.000000 -0.000000 0.000000 0.000000 -0.000000 0.000000 0.000000 -0.000000 0.000000 0.000000 -0.000000 0.000000 0.000000 -0.000000 0.000000 0.000000 -0.000000 0.000000 0.449751 -0.005501 -0.386324 8.505552 -9.678220 -3.654756 37.476056 -16.112027 -14.745383 76.614952 15.567546 48.380333 0.000000 -0.000000 0.000000 0.000000 -0.000000 0.000000 0.000000 -0.000000 0.000000 0.000000 -0.000000 0.000000 0.000000 -0.000000 0.000000 0.000000 -0.000000 0.000000 0.000000 -0.000000 0.000000 0.000000 -0.000000 0.000000 0.000000 -0.000000 0.000000 0.000000 -0.000000 0.000000 0.000000 -0.000000 0.000000 0.000000 -0.000000 0.000000 0.000000 -0.000000 0.000000 0.000000 -0.000000 0.000000 0.000000 -0.000000 0.000000 0.000000 -0.000000 0.000000 0.000000 -0.000000 0.000000 0.000000 -0.000000 0.000000 0.000000 -0.000000 0.000000 0.000000 -0.000000 0.000000
-23.349456 4.591418 -161.018618 0.0 0.0 180.0 0.960603 -3.936618 176.959760 5.552190 -0.062161 -1.108035 -2.570871 0.129198 2.450989 0.000000 -0.000000 0.000000 0.960603 -3.936618 176.959760 3.309229 -1.733235 3.894809 -1.333579 -0.370938 -7.954276 0.000000 -0.000000 0.000000 0.960603 -3.936618 176.959760 0.584446 -0.007850 0.143549 0.527066 0.026809 -0.303724 0.451369 0.029210 -0.385750 0.000000 -0.000000 0.000000 0.451369 0.029210 -0.385750 -9.757831 13.705704 -1.716658 -42.575571 14.970117 -13.684455 -74.770541 -18.067029 48.694012 0.000000 -0.000000 0.000000 0.000000 -0.000000 0.000000 0.000000 -0.000000 0.000000 0.000000 -0.000000 0.000000 0.000000 -0.000000 0.000000 0.000000 -0.000000 0.000000 0.000000 -0.000000 0.000000 0.000000 -0.000000 0.000000 0.000000 -0.000000 0.000000 0.000000 -0.000000 0.000000 0.000000 -0.000000 0.000000 0.000000 -0.000000 0.000000 0.000000 -0.000000 0.000000 0.000000 -0.000000 0.000000 0.000000 -0.000000 0.000000 0.000000 -0.000000 0.000000 0.000000 -0.000000 0.000000 0.000000 -0.000000 0.000000 0.000000 -0.000000 0.000000 0.000000 -0.000000 0.000000 0.451369 0.029210 -0.385750 8.068460 -9.727369 -3.588441 36.530505 -16.135719 -14.361582 78.532491 14.757084 51.399288 0.000000 -0.000000 0.000000 0.000000 -0.000000 0.000000 0.000000 -0.000000 0.000000 0.000000 -0.000000 0.000000 0.000000 -0.000000 0.000000 0.000000 -0.000000 0.000000 0.000000 -0.000000 0.000000 0.000000 -0.000000 0.000000 0.000000 -0.000000 0.000000 0.000000 -0.000000 0.000000 0.000000 -0.000000 0.000000 0.000000 -0.000000 0.000000 0.000000 -0.000000 0.000000 0.000000 -0.000000 0.000000 0.000000 -0.000000 0.000000 0.000000 -0.000000 0.000000 0.000000 -0.000000 0.000000 0.000000 -0.000000 0.000000 0.000000 -0.000000 0.000000 0.000000 -0.000000 0.000000
-23.575656 4.436791 -161.303015 0.0 0.0 180.0 0.900883 -3.845288 176.788756 5.864403 -0.290127 -1.189076 -2.820088 0.071109 4.056637 0.000000 -0.000000 0.000000 0.900883 -3.845288 176.788756 3.626495 -1.780167 4.426161 -1.822878 -0.338067 -8.118105 0.000000 -0.000000 0.000000 0.900883 -3.845288 176.788756 0.549896 -0.036618 0.143025 0.497258 -0.003165 -0.307361 0.423290 -0.000953 -0.389772 0.000000 -0.000000 0.000000 0.423290 -0.000953 -0.389772 -10.395531 13.223032 -1.375162 -41.879385 16.716479 -14.250218 -75.259681 -19.511855 51.756043 0.000000 -0.000000 0.000000 0.000000 -0.000000 0.000000 0.000000 -0.000000 0.000000 0.000000 -0.000000 0.000000 0.000000 -0.000000 0.000000 0.000000 -0.000000 0.000000 0.000000 -0.000000 0.000000 0.000000 -0.000000 0.000000 0.000000 -0.000000 0.000000 0.000000 -0.000000 0.000000 0.000000 -0.000000 0.000000 0.000000 -0.000000 0.000000 0.000000 -0.000000 0.000000 0.000000 -0.000000 0.000000 0.000000 -0.000000 0.000000 0.000000 -0.000000 0.000000 0.000000 -0.000000 0.000000 0.000000 -0.000000 0.000000 0.000000 -0.000000 0.000000 0.000000 -0.000000 0.000000 0.423290 -0.000953 -0.389772 7.439707 -9.743825 -3.469445 36.411340 -15.686317 -14.150315 78.780530 14.109873 50.786869 0.000000 -0.000000 0.000000 0.000000 -0.000000 0.000000 0.000000 -0.000000 0.000000 0.000000 -0.000000 0.000000 0.000000 -0.000000 0.000000 0.000000 -0.000000 0.000000 0.000000 -0.000000 0.000000 0.000000 -0.000000 0.000000 0.000000 -0.000000 0.000000 0.000000 -0.000000 0.000000 0.000000 -0.000000 0.000000 0.000000 -0.000000 0.000000 0.000000 -0.000000 0.000000 0.000000 -0.000000 0.000000 0.000000 -0.000000 0.000000 0.000000 -0.000000 0.000000 0.000000 -0.000000 0.000000 0.000000 -0.000000 0.000000 0.000000 -0.000000 0.000000 0.000000 -0.000000 0.000000
